<svg xmlns="http://www.w3.org/2000/svg" width="190" height="65" viewBox="0 0 190 65" fill="none"><path d="M57.6524 14.4509L60.5181 7.67133H60.9924L63.932 14.4367C64.1763 14.9962 64.2955 15.0445 64.9289 15.141V15.408H61.7451V15.141C62.2677 15.0445 62.742 14.9962 62.4977 14.4367L61.8899 13.0279H58.7572L58.1607 14.448C57.9307 14.9933 58.3794 15.0445 58.902 15.141V15.408H56.6299V15.141C57.2604 15.0445 57.4195 14.9962 57.6495 14.448L57.6524 14.4509ZM61.711 12.6161L60.2909 9.33568L58.9304 12.6161H61.711Z" fill="#801423"></path><path d="M65.9718 13.65V10.8921C65.9718 10.4434 65.6792 10.3951 65.2305 10.3213V10.0656C65.9718 10.1026 66.5796 10.0912 67.1249 9.99179V13.5988C67.1249 14.3032 67.4288 14.7292 68.1076 14.7292C68.4853 14.7292 69.0306 14.5957 69.5902 14.0845V10.8893C69.5902 10.4405 69.2976 10.3923 68.8489 10.3184V10.0628C69.5902 10.0997 70.198 10.0884 70.7433 9.98895V14.3373C70.7433 14.7747 70.8398 15.0189 71.5442 15.1382V15.4052H69.7094L69.7833 14.4566H69.6242C69.0647 15.0274 68.4456 15.4904 67.5481 15.4904C66.2955 15.4904 65.9689 14.5901 65.9689 13.6443L65.9718 13.65Z" fill="#801423"></path><path d="M72.2394 15.0331L72.2139 13.9141H72.603C72.833 14.6298 73.296 15.1297 74.1338 15.1297C74.8155 15.1297 75.2017 14.803 75.2017 14.2804C75.2017 13.6357 74.6195 13.4539 73.8782 13.1756C73.1256 12.8973 72.2394 12.4599 72.2394 11.4857C72.2394 10.5115 73.0034 9.95483 74.256 9.95483C75.1052 9.95483 75.5795 10.2587 75.8237 10.4178L75.8124 11.5226H75.4488C75.2557 10.841 74.878 10.3439 74.1253 10.3439C73.5175 10.3439 73.2023 10.6848 73.2023 11.108C73.2023 11.605 73.6283 11.8606 74.3326 12.1276C75.0853 12.4059 76.2384 12.7837 76.2384 13.8771C76.2384 14.8371 75.3381 15.5159 74.0145 15.5159C73.1284 15.5159 72.461 15.1893 72.2423 15.0302L72.2394 15.0331Z" fill="#801423"></path><path d="M77.8264 14.5247V10.6734H76.9033V10.3098C77.6332 10.0315 78.2155 9.55719 78.6415 8.96075H78.9823V10.1877L80.4649 10.0287C80.4422 10.2218 80.428 10.4774 80.428 10.6734H78.9823V14.0504C78.9823 14.536 79.1641 14.6809 79.5419 14.6809C79.8344 14.6809 80.2831 14.5843 80.5501 14.4878V14.8513C80.1014 15.07 79.3601 15.3739 78.8602 15.5329C78.3149 15.5329 77.8264 15.0359 77.8264 14.5247Z" fill="#801423"></path><path d="M81.9562 14.4878V11.5709C81.9562 11.1335 81.8596 10.8893 81.0928 10.8183V10.574C81.9562 10.4405 82.4277 10.2474 82.9758 9.86966L83.2201 10.0997L82.8793 11.5567H83.1718C83.6461 10.5371 84.1318 9.86682 84.9327 9.86682C85.14 9.86682 85.2622 9.89238 85.4297 9.96339V11.1165C85.1855 11.0199 85.0037 10.9575 84.6515 10.9575C83.6546 10.9575 83.1093 11.7101 83.1093 12.6587V14.4821C83.1093 15.0161 83.4019 15.053 84.0097 15.1382V15.4052H81.0956V15.1382C81.6665 15.053 81.959 15.0161 81.959 14.4821L81.9562 14.4878Z" fill="#801423"></path><path d="M89.6923 14.4991C89.2436 14.9365 88.491 15.496 87.5537 15.496C86.7158 15.496 86.0967 15.0217 86.0967 14.2094C86.0967 13.1642 87.0936 12.849 88.4398 12.4712C89.1073 12.2895 89.5219 12.1929 89.6923 11.8634V11.693C89.6923 10.6848 89.255 10.4178 88.2836 10.4178C88.0536 10.4178 87.9059 10.5144 87.8093 10.7586C87.4941 11.5595 87.2981 11.8265 86.9345 11.8265C86.6676 11.8265 86.4489 11.6675 86.4489 11.3636C86.4489 10.5144 88.1246 9.95483 89.218 9.95483C90.3712 9.95483 90.8455 10.5996 90.8455 11.801V14.2918C90.8455 14.6695 91.2459 14.7775 91.7572 14.4736V14.7519C91.4419 15.1041 91.0897 15.3341 90.6637 15.4932C90.1184 15.4932 89.7037 15.0075 89.6923 14.4963V14.4991ZM88.2353 14.8144C88.8176 14.8144 89.3657 14.4366 89.6923 14.0135V12.5082L88.5023 12.849C87.602 13.1046 87.3123 13.4568 87.3123 13.9425C87.3123 14.5389 87.7383 14.8172 88.2353 14.8172V14.8144Z" fill="#801423"></path><path d="M93.1293 14.4878V8.76481C93.1293 8.32742 92.9475 8.08316 92.2432 8.0008V7.75654C92.9589 7.63441 93.4957 7.44128 94.041 7.06354L94.2853 7.29359V14.4849C94.2853 15.0189 94.6857 15.0558 95.1714 15.141V15.408H92.2432V15.141C92.7288 15.0558 93.1293 15.0189 93.1293 14.4849V14.4878Z" fill="#801423"></path><path d="M96.5802 14.4878V11.5851C96.5802 11.1478 96.4837 10.9035 95.7793 10.8211V10.5769C96.4609 10.4661 96.9807 10.2503 97.4806 9.87251L97.7362 10.1026V14.4878C97.7362 15.0218 98.0514 15.0587 98.5371 15.1439V15.4109H95.7793V15.1439C96.265 15.0587 96.5802 15.0218 96.5802 14.4878ZM97.0773 7.2851C97.4664 7.2851 97.8072 7.60036 97.8072 7.98946C97.8072 8.37857 97.4664 8.69383 97.0773 8.69383C96.6882 8.69383 96.3473 8.37857 96.3473 7.98946C96.3473 7.60036 96.6882 7.2851 97.0773 7.2851Z" fill="#801423"></path><path d="M102.797 14.4991C102.348 14.9365 101.595 15.496 100.658 15.496C99.8203 15.496 99.2012 15.0217 99.2012 14.2094C99.2012 13.1642 100.198 12.849 101.544 12.4712C102.212 12.2895 102.626 12.1929 102.797 11.8634V11.693C102.797 10.6848 102.359 10.4178 101.388 10.4178C101.158 10.4178 101.01 10.5144 100.914 10.7586C100.599 11.5595 100.403 11.8265 100.039 11.8265C99.7721 11.8265 99.5534 11.6675 99.5534 11.3636C99.5534 10.5144 101.229 9.95483 102.323 9.95483C103.476 9.95483 103.95 10.5996 103.95 11.801V14.2918C103.95 14.6695 104.35 14.7775 104.862 14.4736V14.7519C104.546 15.1041 104.194 15.3341 103.768 15.4932C103.223 15.4932 102.808 15.0075 102.797 14.4963V14.4991ZM101.34 14.8144C101.922 14.8144 102.47 14.4366 102.797 14.0135V12.5082L101.607 12.849C100.706 13.1046 100.417 13.4568 100.417 13.9425C100.417 14.5389 100.843 14.8172 101.34 14.8172V14.8144Z" fill="#801423"></path><path d="M106.089 14.4878V11.5851C106.089 11.1477 105.992 10.9035 105.288 10.8211V10.5769C106.089 10.4547 106.563 10.2502 107.111 9.8725L107.356 10.1026L107.026 11.1222H107.219C107.742 10.4775 108.398 9.95486 109.321 9.95486C110.522 9.95486 110.826 10.8183 110.826 11.8265V14.4878C110.826 15.0218 111.142 15.0587 111.627 15.1439V15.4109H108.906V15.1439C109.355 15.0587 109.67 15.0218 109.67 14.4878V11.9004C109.67 11.1705 109.378 10.7331 108.71 10.7331C108.347 10.7331 107.776 10.8666 107.239 11.5226V14.4878C107.239 15.0218 107.554 15.0587 108.006 15.1439V15.4109H105.285V15.1439C105.771 15.0587 106.086 15.0218 106.086 14.4878H106.089Z" fill="#801423"></path><path d="M115.757 14.1839V8.98349C115.757 8.16836 115.38 8.14564 114.749 8.02351V7.75653H118.066V8.02351C117.436 8.14564 117.058 8.16836 117.058 8.98349V14.1839C117.058 14.999 117.436 15.0217 118.066 15.1439V15.4108H114.749V15.1439C115.38 15.0217 115.757 14.999 115.757 14.1839Z" fill="#801423"></path><path d="M119.412 14.4878V11.5851C119.412 11.1477 119.316 10.9035 118.611 10.8211V10.5769C119.412 10.4547 119.886 10.2502 120.435 9.8725L120.679 10.1026L120.349 11.1222H120.543C121.065 10.4775 121.721 9.95486 122.644 9.95486C123.846 9.95486 124.15 10.8183 124.15 11.8265V14.4878C124.15 15.0218 124.465 15.0587 124.951 15.1439V15.4109H122.23V15.1439C122.678 15.0587 122.994 15.0218 122.994 14.4878V11.9004C122.994 11.1705 122.701 10.7331 122.034 10.7331C121.67 10.7331 121.099 10.8666 120.562 11.5226V14.4878C120.562 15.0218 120.878 15.0587 121.329 15.1439V15.4109H118.608V15.1439C119.094 15.0587 119.409 15.0218 119.409 14.4878H119.412Z" fill="#801423"></path><path d="M126.36 14.5247V10.6734H125.437V10.3098C126.166 10.0315 126.749 9.55719 127.175 8.96075H127.516V10.1877L128.998 10.0287C128.975 10.2218 128.961 10.4774 128.961 10.6734H127.516V14.0504C127.516 14.536 127.697 14.6809 128.075 14.6809C128.368 14.6809 128.816 14.5843 129.083 14.4878V14.8513C128.635 15.07 127.893 15.3739 127.393 15.5329C126.848 15.5329 126.36 15.0359 126.36 14.5247Z" fill="#801423"></path><path d="M129.811 12.7609C129.811 11.0966 131.001 9.95483 132.557 9.95483C134.343 9.95483 135.108 11.4374 134.707 12.457H131.003C131.077 13.7919 131.89 14.7406 133.128 14.7406C133.724 14.7406 134.295 14.5219 134.585 14.0845L134.792 14.218C134.5 15.0445 133.625 15.4932 132.605 15.4932C131.063 15.4932 129.811 14.4594 129.811 12.7609ZM133.614 12.0566C133.721 11.3039 133.358 10.3553 132.424 10.3553C131.694 10.3553 131.074 10.9375 131.015 12.0566H133.614Z" fill="#801423"></path><path d="M136.405 14.4878V11.5709C136.405 11.1335 136.309 10.8893 135.542 10.8183V10.574C136.405 10.4405 136.88 10.2474 137.425 9.86966L137.669 10.0997L137.328 11.5567H137.621C138.095 10.5371 138.581 9.86682 139.382 9.86682C139.589 9.86682 139.709 9.89238 139.879 9.96339V11.1165C139.635 11.0199 139.453 10.9575 139.101 10.9575C138.104 10.9575 137.559 11.7101 137.559 12.6587V14.4821C137.559 15.0161 137.851 15.053 138.459 15.1382V15.4052H135.545V15.1382C136.116 15.053 136.408 15.0161 136.408 14.4821L136.405 14.4878Z" fill="#801423"></path><path d="M141.228 14.4878V11.5851C141.228 11.1477 141.131 10.9035 140.427 10.8211V10.5769C141.228 10.4547 141.702 10.2502 142.25 9.8725L142.494 10.1026L142.168 11.1222H142.361C142.884 10.4775 143.54 9.95486 144.463 9.95486C145.664 9.95486 145.968 10.8183 145.968 11.8265V14.4878C145.968 15.0218 146.283 15.0587 146.769 15.1439V15.4109H144.048V15.1439C144.497 15.0587 144.815 15.0218 144.815 14.4878V11.9004C144.815 11.1705 144.522 10.7331 143.855 10.7331C143.491 10.7331 142.92 10.8666 142.384 11.5226V14.4878C142.384 15.0218 142.699 15.0587 143.148 15.1439V15.4109H140.427V15.1439C140.912 15.0587 141.228 15.0218 141.228 14.4878Z" fill="#801423"></path><path d="M150.97 14.4991C150.521 14.9365 149.768 15.496 148.831 15.496C147.993 15.496 147.374 15.0217 147.374 14.2094C147.374 13.1642 148.371 12.849 149.717 12.4712C150.385 12.2895 150.799 12.1929 150.97 11.8634V11.693C150.97 10.6848 150.532 10.4178 149.561 10.4178C149.331 10.4178 149.183 10.5144 149.087 10.7586C148.771 11.5595 148.575 11.8265 148.212 11.8265C147.945 11.8265 147.726 11.6675 147.726 11.3636C147.726 10.5144 149.402 9.95483 150.495 9.95483C151.649 9.95483 152.123 10.5996 152.123 11.801V14.2918C152.123 14.6695 152.523 14.7775 153.035 14.4736V14.7519C152.719 15.1041 152.367 15.3341 151.941 15.4932C151.396 15.4932 150.981 15.0075 150.97 14.4963V14.4991ZM149.513 14.8144C150.095 14.8144 150.643 14.4366 150.97 14.0135V12.5082L149.78 12.849C148.879 13.1046 148.59 13.4568 148.59 13.9425C148.59 14.5389 149.016 14.8172 149.513 14.8172V14.8144Z" fill="#801423"></path><path d="M154.381 14.5247V10.6734H153.458V10.3098C154.188 10.0315 154.77 9.55719 155.196 8.96075H155.537V10.1877L157.02 10.0287C156.997 10.2218 156.983 10.4774 156.983 10.6734H155.537V14.0504C155.537 14.536 155.719 14.6809 156.097 14.6809C156.389 14.6809 156.838 14.5843 157.105 14.4878V14.8513C156.656 15.07 155.915 15.3739 155.415 15.5329C154.87 15.5329 154.381 15.0359 154.381 14.5247Z" fill="#801423"></path><path d="M158.51 14.4878V11.5851C158.51 11.1478 158.413 10.9035 157.709 10.8211V10.5769C158.391 10.4661 158.91 10.2503 159.41 9.87251L159.666 10.1026V14.4878C159.666 15.0218 159.981 15.0587 160.467 15.1439V15.4109H157.709V15.1439C158.195 15.0587 158.51 15.0218 158.51 14.4878ZM159.007 7.2851C159.396 7.2851 159.737 7.60036 159.737 7.98946C159.737 8.37857 159.396 8.69383 159.007 8.69383C158.618 8.69383 158.277 8.37857 158.277 7.98946C158.277 7.60036 158.618 7.2851 159.007 7.2851Z" fill="#801423"></path><path d="M161.194 12.7752C161.194 10.9887 162.614 9.9577 164.123 9.9577C165.631 9.9577 166.917 10.9915 166.917 12.7042C166.917 14.4168 165.497 15.5216 163.989 15.5216C162.481 15.5216 161.194 14.4878 161.194 12.7752ZM164.145 15.1183C164.909 15.1183 165.651 14.4509 165.651 12.9427C165.651 11.534 164.972 10.3553 163.964 10.3553C163.197 10.3553 162.458 11.0228 162.458 12.5309C162.458 13.9396 163.137 15.1183 164.148 15.1183H164.145Z" fill="#801423"></path><path d="M168.386 14.4878V11.5851C168.386 11.1477 168.289 10.9035 167.585 10.8211V10.5769C168.386 10.4547 168.86 10.2502 169.408 9.8725L169.653 10.1026L169.326 11.1222H169.519C170.042 10.4775 170.698 9.95486 171.621 9.95486C172.822 9.95486 173.126 10.8183 173.126 11.8265V14.4878C173.126 15.0218 173.441 15.0587 173.927 15.1439V15.4109H171.206V15.1439C171.655 15.0587 171.973 15.0218 171.973 14.4878V11.9004C171.973 11.1705 171.681 10.7331 171.013 10.7331C170.65 10.7331 170.079 10.8666 169.542 11.5226V14.4878C169.542 15.0218 169.857 15.0587 170.306 15.1439V15.4109H167.585V15.1439C168.071 15.0587 168.386 15.0218 168.386 14.4878Z" fill="#801423"></path><path d="M178.125 14.4991C177.676 14.9365 176.924 15.496 175.986 15.496C175.148 15.496 174.529 15.0217 174.529 14.2094C174.529 13.1642 175.526 12.849 176.872 12.4712C177.54 12.2895 177.955 12.1929 178.125 11.8634V11.693C178.125 10.6848 177.688 10.4178 176.716 10.4178C176.486 10.4178 176.339 10.5144 176.242 10.7586C175.927 11.5595 175.731 11.8265 175.367 11.8265C175.1 11.8265 174.881 11.6675 174.881 11.3636C174.881 10.5144 176.557 9.95483 177.651 9.95483C178.804 9.95483 179.278 10.5996 179.278 11.801V14.2918C179.278 14.6695 179.679 14.7775 180.19 14.4736V14.7519C179.875 15.1041 179.522 15.3341 179.096 15.4932C178.551 15.4932 178.136 15.0075 178.125 14.4963V14.4991ZM176.668 14.8144C177.25 14.8144 177.798 14.4366 178.125 14.0135V12.5082L176.935 12.849C176.035 13.1046 175.745 13.4568 175.745 13.9425C175.745 14.5389 176.171 14.8172 176.668 14.8172V14.8144Z" fill="#801423"></path><path d="M181.564 14.4878V8.76481C181.564 8.32742 181.382 8.08316 180.678 8.0008V7.75654C181.393 7.63441 181.93 7.44128 182.476 7.06354L182.72 7.29359V14.4849C182.72 15.0189 183.12 15.0558 183.606 15.141V15.408H180.678V15.141C181.163 15.0558 181.564 15.0189 181.564 14.4849V14.4878Z" fill="#801423"></path><path d="M93.7485 30.0378V24.8374C93.7485 24.0223 93.3708 23.9996 92.7402 23.8775V23.6105H96.0576V23.8775C95.427 23.9996 95.0493 24.0223 95.0493 24.8374V30.0378C95.0493 30.853 95.427 30.8757 96.0576 30.9978V31.2648H92.7402V30.9978C93.3708 30.8757 93.7485 30.853 93.7485 30.0378Z" fill="#801423"></path><path d="M97.4064 30.3416V27.439C97.4064 27.0016 97.3098 26.7573 96.6055 26.6749V26.4307C97.4064 26.3086 97.8807 26.1041 98.4289 25.7263L98.6731 25.9564L98.3465 26.976H98.5396C99.0622 26.3313 99.7183 25.8087 100.641 25.8087C101.843 25.8087 102.147 26.6721 102.147 27.6804V30.3416C102.147 30.8756 102.462 30.9125 102.948 30.9977V31.2647H100.227V30.9977C100.675 30.9125 100.994 30.8756 100.994 30.3416V27.7542C100.994 27.0243 100.701 26.5869 100.034 26.5869C99.67 26.5869 99.0991 26.7204 98.5624 27.3765V30.3416C98.5624 30.8756 98.8776 30.9125 99.3264 30.9977V31.2647H96.6055V30.9977C97.0911 30.9125 97.4064 30.8756 97.4064 30.3416Z" fill="#801423"></path><path d="M103.635 30.887L103.612 29.7679H104.001C104.231 30.4837 104.694 30.9835 105.532 30.9835C106.211 30.9835 106.6 30.6569 106.6 30.1343C106.6 29.4896 106.018 29.3078 105.277 29.0295C104.524 28.7511 103.638 28.3138 103.638 27.3396C103.638 26.3654 104.405 25.8087 105.654 25.8087C106.504 25.8087 106.978 26.1126 107.222 26.2717L107.211 27.3765H106.847C106.654 26.6949 106.276 26.1978 105.524 26.1978C104.916 26.1978 104.601 26.5386 104.601 26.9618C104.601 27.4589 105.027 27.7145 105.731 27.9815C106.484 28.2598 107.637 28.6375 107.637 29.731C107.637 30.691 106.737 31.3698 105.413 31.3698C104.527 31.3698 103.859 31.0432 103.638 30.8841L103.635 30.887Z" fill="#801423"></path><path d="M109.222 30.3786V26.5273H108.299V26.1638C109.029 25.8854 109.611 25.4111 110.037 24.8147H110.378V26.0417L111.86 25.8826C111.838 26.0757 111.824 26.3314 111.824 26.5273H110.378V29.9043C110.378 30.39 110.56 30.5348 110.937 30.5348C111.23 30.5348 111.679 30.4383 111.946 30.3417V30.7052C111.497 30.9239 110.756 31.2278 110.256 31.3869C109.71 31.3869 109.222 30.8899 109.222 30.3786Z" fill="#801423"></path><path d="M113.352 30.3416V27.439C113.352 27.0016 113.255 26.7573 112.551 26.6749V26.4307C113.232 26.3199 113.752 26.1041 114.252 25.7263L114.508 25.9564V30.3416C114.508 30.8756 114.823 30.9125 115.309 30.9977V31.2647H112.551V30.9977C113.036 30.9125 113.352 30.8756 113.352 30.3416ZM113.849 23.1389C114.238 23.1389 114.579 23.4542 114.579 23.8433C114.579 24.2324 114.238 24.5476 113.849 24.5476C113.46 24.5476 113.119 24.2324 113.119 23.8433C113.119 23.4542 113.46 23.1389 113.849 23.1389Z" fill="#801423"></path><path d="M116.777 30.3786V26.5273H115.854V26.1638C116.583 25.8854 117.166 25.4111 117.592 24.8147H117.933V26.0417L119.415 25.8826C119.392 26.0757 119.378 26.3314 119.378 26.5273H117.933V29.9043C117.933 30.39 118.114 30.5348 118.492 30.5348C118.785 30.5348 119.233 30.4383 119.5 30.3417V30.7052C119.052 30.9239 118.31 31.2278 117.81 31.3869C117.265 31.3869 116.779 30.8899 116.779 30.3786H116.777Z" fill="#801423"></path><path d="M120.784 29.5038V26.746C120.784 26.2972 120.492 26.2489 120.043 26.1751V25.9195C120.784 25.9564 121.392 25.945 121.937 25.8456V29.4527C121.937 30.157 122.241 30.583 122.92 30.583C123.298 30.583 123.843 30.4496 124.403 29.9383V26.7431C124.403 26.2944 124.11 26.2461 123.661 26.1722V25.9166C124.403 25.9535 125.01 25.9422 125.556 25.8428V30.1911C125.556 30.6285 125.652 30.8727 126.357 30.992V31.259H124.522L124.596 30.3104H124.437C123.877 30.8813 123.258 31.3442 122.361 31.3442C121.108 31.3442 120.781 30.4439 120.781 29.4981L120.784 29.5038Z" fill="#801423"></path><path d="M127.768 30.3786V26.5273H126.845V26.1638C127.575 25.8854 128.157 25.4111 128.583 24.8147H128.924V26.0417L130.406 25.8826C130.384 26.0757 130.369 26.3314 130.369 26.5273H128.924V29.9043C128.924 30.39 129.106 30.5348 129.483 30.5348C129.776 30.5348 130.225 30.4383 130.492 30.3417V30.7052C130.043 30.9239 129.301 31.2278 128.802 31.3869C128.256 31.3869 127.771 30.8899 127.771 30.3786H127.768Z" fill="#801423"></path><path d="M131.219 28.6176C131.219 26.9533 132.409 25.8115 133.965 25.8115C135.752 25.8115 136.516 27.2941 136.115 28.3137H132.412C132.485 29.6486 133.298 30.5972 134.536 30.5972C135.133 30.5972 135.703 30.3785 135.993 29.9412L136.2 30.0746C135.908 30.9011 135.033 31.3499 134.013 31.3499C132.471 31.3499 131.219 30.3161 131.219 28.6176ZM135.022 27.9133C135.13 27.1606 134.766 26.212 133.832 26.212C133.102 26.212 132.483 26.7942 132.423 27.9133H135.022Z" fill="#801423"></path><path d="M139.43 29.8674C139.43 27.8992 141.216 25.9309 142.977 25.9309C143.767 25.9309 144.363 26.3314 144.363 27.4362C144.363 29.3789 142.577 31.3841 140.816 31.3841C140.026 31.3841 139.43 30.9836 139.43 29.8646V29.8674ZM141.228 31.0205C142.347 31.0205 143.304 28.6035 143.304 27.3396C143.304 26.6836 143.037 26.2945 142.574 26.2945C141.421 26.2945 140.483 28.7484 140.483 29.9753C140.483 30.6059 140.728 31.0205 141.225 31.0205H141.228Z" fill="#801423"></path><path d="M142.452 32.7218C142.452 32.4065 142.696 32.1764 142.997 32.1764C143.386 32.1764 143.494 32.5542 143.483 32.7842C143.472 33.0881 143.628 33.1847 143.872 33.1847C144.358 33.1847 144.699 32.807 145.099 31.3869L146.508 26.4052L145.244 26.3313L145.329 26.0388H146.604C147.224 23.8632 148.243 22.7839 149.507 22.7839C150.285 22.7839 150.612 23.1844 150.612 23.5621C150.612 23.8888 150.368 24.133 150.067 24.133C149.689 24.133 149.606 23.7695 149.606 23.5366C149.606 23.2213 149.436 23.1248 149.18 23.1248C148.683 23.1248 148.365 23.5025 147.965 24.9226L147.65 26.0416H148.973L148.803 26.5273L147.527 26.4535L146.46 30.2565C145.84 32.4434 144.821 33.5227 143.58 33.5227C142.816 33.5227 142.449 33.1109 142.449 32.7218H142.452Z" fill="#801423"></path><path d="M67.9789 41.5661C67.9789 41.1486 67.9789 40.0494 67.3228 39.7739H70.6061C69.95 40.0523 69.95 41.1514 69.95 41.5661V44.2217H73.219V41.5661C73.219 41.1486 73.219 40.0494 72.5629 39.7739H75.8462C75.1901 40.0523 75.1901 41.1514 75.1901 41.5661V47.7123C75.1901 48.1298 75.1901 49.2289 75.8462 49.5044H72.5487C73.2048 49.2261 73.219 48.1269 73.219 47.7123V44.7783H69.95V47.7123C69.95 48.1298 69.95 49.2289 70.6061 49.5044H67.3086C67.9647 49.2261 67.9789 48.1269 67.9789 47.7123V41.5661Z" fill="#801423"></path><path d="M77.1043 44.3467C77.1043 43.9292 77.1043 42.83 76.4482 42.5545H79.101L79.0754 48.0332C79.101 48.5331 79.2061 49.2858 79.7315 49.5073H76.4482C77.1043 49.229 77.1043 48.1298 77.1043 47.7151V44.3495V44.3467ZM78.1552 39.0781C78.7715 39.0781 79.3111 39.6632 79.3111 40.3306C79.3111 40.9981 78.7715 41.444 78.1552 41.444C77.5389 41.444 76.9737 40.9981 76.9737 40.3306C76.9737 39.6632 77.5247 39.0781 78.1552 39.0781Z" fill="#801423"></path><path d="M80.5331 48.1127C80.5076 47.2919 81.1125 46.6955 81.4533 46.3745C81.033 45.9854 80.7575 45.4146 80.7433 44.5937C80.7177 42.8016 82.5042 42.3983 83.7766 42.3983C83.9612 42.3983 84.1828 42.4125 84.4213 42.4693H84.4753C85.5659 42.5517 86.9974 40.4954 87.2729 40.4954C87.3524 40.4954 87.3524 40.6487 87.3524 40.6913C87.3524 41.2764 87.2615 41.8871 87.2076 42.4721C86.7361 42.5971 86.026 42.7221 85.3813 42.7931C86.0772 43.1396 86.6679 43.7531 86.6679 44.767C86.6679 46.5336 84.961 47.13 83.7795 47.13C83.1092 47.13 82.3878 47.0193 81.797 46.6444C81.7572 46.6728 81.7175 46.687 81.6919 46.7267C80.695 48.0474 84.9752 47.7009 86.3924 48.7007C87.4944 49.4789 87.6648 51.538 86.063 52.4554C85.4182 52.8303 84.5917 52.9979 83.7653 52.9979C82.544 52.9979 81.3085 52.6372 80.641 52.0095C79.4993 50.9529 81.993 50.9955 81.6919 50.064C82.2969 51.3846 83.8192 52.5236 84.961 52.5236C85.5659 52.5236 86.063 52.2168 86.2873 51.4528C86.8781 49.3965 80.6155 51.0353 80.536 48.1156L80.5331 48.1127ZM82.4758 44.6364C82.4758 45.3862 82.882 46.846 83.788 46.846C84.3787 46.846 84.9695 45.6929 84.9695 44.6364C84.9695 43.8723 84.6542 42.6766 83.788 42.6766C83.0524 42.6766 82.4758 43.6366 82.4758 44.6364Z" fill="#801423"></path><path d="M90.5783 47.7095C90.5783 48.127 90.5783 49.2261 91.2344 49.5016H87.9512C88.6073 49.2233 88.6073 48.1241 88.6073 47.7095V40.8703C88.6073 40.4528 88.6073 39.3536 87.9512 39.0781H90.5783V43.9434C90.9731 43.3327 91.7996 42.5403 92.6801 42.4153C93.9014 42.2478 95.1738 42.8613 95.1738 44.5V47.7123C95.1738 48.1298 95.1738 49.229 95.8298 49.5045H92.5466C93.2027 49.2261 93.2027 48.127 93.2027 47.7123V44.5C93.2027 43.6366 92.3875 43.4151 92.2569 43.3867C92.112 43.3583 91.2316 43.3043 90.5755 44.3609V47.7123L90.5783 47.7095Z" fill="#801423"></path><path d="M103.041 45.889V46.1673H98.5363C98.6556 48.3514 99.6923 49.1154 100.743 49.1154C101.624 49.1154 102.515 48.5729 102.856 47.8515L103.041 48.1157C102.62 48.8655 101.558 49.7829 100.164 49.7829C98.221 49.7829 96.4346 48.5729 96.4346 45.8634C96.4346 43.5969 98.0109 42.4154 99.8229 42.4154C101.635 42.4154 102.987 43.7077 103.041 45.8918V45.889ZM100.939 45.889C100.914 43.7617 100.559 42.6909 99.8371 42.6909C99.1157 42.6909 98.4852 43.7617 98.5363 45.889H100.939Z" fill="#801423"></path><path d="M106.274 47.7095C106.274 48.127 106.274 49.2262 106.93 49.5017H103.646C104.303 49.2233 104.303 48.1242 104.303 47.7095V44.3439C104.303 43.9264 104.303 42.8272 103.646 42.5517H106.274V43.9434C106.535 43.4009 107.1 42.5404 107.981 42.4154C109.412 42.2194 111.395 43.7929 109.977 44.1394L108.506 44.5001C108.506 43.6367 107.85 43.4151 107.719 43.3867C107.589 43.3583 106.933 43.3044 106.274 44.3609V47.7123V47.7095Z" fill="#801423"></path><path d="M117.055 40.3278V44.2217H118.512C118.906 44.2217 119.943 44.2217 120.204 43.5258V45.4713C119.943 44.7755 118.904 44.7755 118.512 44.7755H117.055V48.9477H120.863V49.5044H114.416C114.967 49.2687 115.086 48.4479 115.086 47.948V41.5661C115.086 41.1486 115.086 40.0494 114.43 39.7739H120.866V41.7195C120.866 41.1344 120.079 40.3278 119.159 40.3278H117.057H117.055ZM119.156 48.9477C120.077 48.9477 120.863 48.1411 120.863 47.556V48.9477H119.156Z" fill="#801423"></path><path d="M127.546 47.7095C127.546 48.127 127.546 49.2261 128.202 49.5016H124.288C122.331 49.5016 120.849 48.2491 120.874 45.8463C120.9 43.5514 122.11 42.4551 123.683 42.4551C124.274 42.4551 124.919 42.6085 125.561 42.9152V39.0781H128.199C127.543 39.3565 127.543 40.4556 127.543 40.8703V47.7095H127.546ZM125.564 43.1765C125.248 43.1084 124.973 43.0799 124.737 43.0799C123.385 43.0799 122.976 44.0683 122.976 45.9173C122.976 48.073 123.658 49.2687 125.078 49.2687C125.234 49.2687 125.393 49.2545 125.564 49.2261V43.1794V43.1765Z" fill="#801423"></path><path d="M135.425 47.7094C135.425 48.1269 135.425 49.2261 136.081 49.5016H133.442V48.1241C133.048 48.7347 132.221 49.5158 131.355 49.6407C130.133 49.8083 128.858 49.1948 128.858 47.556V44.3438C128.858 43.9263 128.858 42.8271 128.202 42.5516H131.485C130.829 42.83 130.829 43.9291 130.829 44.3438V47.556C130.829 48.4166 131.644 48.641 131.775 48.6694C131.92 48.6978 132.786 48.7518 133.442 47.7094L133.456 44.0939C133.442 43.594 133.351 42.7874 132.8 42.5516H136.084C135.428 42.83 135.428 43.9291 135.428 44.3438V47.7094H135.425Z" fill="#801423"></path><path d="M139.472 42.4125C141.665 42.3018 143.503 44.7756 141.889 44.7756H140.969C140.983 44.5682 141.1 42.6341 139.523 42.6909C138.774 42.7193 138.092 43.8298 138.183 46.0963C138.262 48.1128 139.379 48.945 140.506 48.945C141.282 48.945 142.068 48.5417 142.503 47.8458L142.687 48.11C142.267 48.8598 141.597 49.7772 139.813 49.7772C137.87 49.7772 136.084 48.5672 136.084 45.8577C136.084 43.5912 137.66 42.5063 139.472 42.4097V42.4125Z" fill="#801423"></path><path d="M147.325 49.087C146.709 49.6295 145.854 49.8652 145.067 49.8652C143.65 49.8652 142.52 49.0302 142.716 47.5022C142.911 45.9032 144.332 45.4856 145.789 45.4856C146.314 45.4856 146.839 45.5424 147.325 45.6106V44.4973C147.339 43.6338 147.246 42.8017 146.433 42.6909C145.737 42.5943 145.226 43.1084 145.226 44.6364H143.389C142.207 44.6364 144.334 42.5091 146.146 42.4126C147.368 42.3444 149.299 42.6909 149.299 44.4973V47.7095C149.299 48.127 149.299 49.2262 149.955 49.5017H147.328V49.0842L147.325 49.087ZM146.709 45.835C145.658 45.835 144.831 46.4201 144.831 47.6697C144.831 48.9194 145.647 49.4505 146.459 49.2688C147.22 49.1012 147.325 48.4622 147.325 47.9765V45.906C147.115 45.8634 146.905 45.8378 146.709 45.8378V45.835Z" fill="#801423"></path><path d="M151.134 42.8299H149.952V42.5516C150.634 42.5516 152.866 41.7166 152.866 40.6061H153.102V42.5516H154.809V42.8299H153.102V47.556C153.102 48.4166 153.403 48.7659 153.798 48.7659C154.244 48.7659 154.809 48.3342 155.204 47.6952V48.1127C154.664 48.9477 154.062 49.7401 153.037 49.7401C152.011 49.7401 151.134 48.9193 151.134 47.556V42.8299Z" fill="#801423"></path><path d="M155.86 44.3467C155.86 43.9292 155.86 42.83 155.204 42.5545H157.857L157.831 48.0332C157.857 48.5331 157.962 49.2858 158.487 49.5073H155.204C155.86 49.229 155.86 48.1298 155.86 47.7151V44.3495V44.3467ZM156.911 39.0781C157.527 39.0781 158.067 39.6632 158.067 40.3306C158.067 40.9981 157.527 41.444 156.911 41.444C156.295 41.444 155.73 40.9981 155.73 40.3306C155.73 39.6632 156.281 39.0781 156.911 39.0781Z" fill="#801423"></path><path d="M161.876 42.4125C163.702 42.4125 165.29 43.7616 165.29 46.028C165.29 48.5728 163.833 49.7828 161.876 49.7828C159.919 49.7828 158.487 48.5728 158.487 45.8633C158.487 43.5968 160.064 42.4153 161.876 42.4153V42.4125ZM161.89 49.5016C162.64 49.5016 163.191 48.3627 163.191 46.0962C163.191 43.8297 162.64 42.6908 161.89 42.6908C161.14 42.6908 160.589 43.8297 160.589 46.0962C160.589 48.3627 161.14 49.5016 161.89 49.5016Z" fill="#801423"></path><path d="M165.945 44.3467C165.945 43.9292 165.945 42.83 165.289 42.5545H167.942V43.9178C168.336 43.3072 169.149 42.5403 170.018 42.4153C171.239 42.2478 172.512 42.8612 172.512 44.5V47.7123C172.512 48.1298 172.512 49.229 173.168 49.5045H169.884C170.54 49.2261 170.54 48.127 170.54 47.7123V44.5C170.54 43.6366 169.725 43.4151 169.595 43.3867C169.45 43.3583 168.584 43.3043 167.928 44.3325L167.913 48.0304C167.939 48.5303 168.044 49.2829 168.569 49.5045H165.286C165.942 49.2261 165.942 48.127 165.942 47.7123V44.3467H165.945Z" fill="#801423"></path><path d="M27.455 60.1381C22.1353 57.0764 9.52775 48.7632 7.38909 37.6751C5.10842 25.8542 4.91244 12.7269 4.93516 7.62874V7.07207L5.46344 6.88745C8.59049 5.78262 15.6796 3.92798 28.0202 3.92798C40.162 3.95922 47.1545 5.79682 50.2418 6.89029L50.7673 7.07491V7.63158C50.79 12.724 50.594 25.8485 48.3162 37.6722C46.1775 48.7575 33.5699 57.0736 28.2474 60.1353L27.8526 60.3625L27.4578 60.1353L27.455 60.1381Z" fill="#801423"></path><path d="M28.0208 4.71758C39.978 4.74882 46.8569 6.52962 49.9783 7.63445C50.001 13.0649 49.7823 25.8855 47.5386 37.5246C45.4453 48.3826 32.7639 56.6277 27.8504 59.4508C22.9397 56.6248 10.2611 48.3798 8.16788 37.5217C5.92413 25.8827 5.70544 13.0592 5.72816 7.62877C8.84952 6.52678 15.8279 4.71474 28.0236 4.71474M28.0236 3.13275C15.5637 3.13275 8.37805 5.0158 5.20272 6.13767L4.15469 6.50973L4.14901 7.62309C4.12629 12.7411 4.32511 25.9309 6.61714 37.8228C8.81828 49.229 21.6502 57.7069 27.0636 60.8226L27.8532 61.2771L28.6428 60.8226C34.059 57.7069 46.8938 49.229 49.095 37.8256C51.387 25.9338 51.5858 12.7468 51.5631 7.63161L51.5574 6.51825L50.5094 6.14619C47.3738 5.03568 40.2847 3.16967 28.0293 3.13843L28.0236 3.13275Z" fill="#E5C60B"></path><path d="M14.6636 11.8777L17.1601 12.2356L15.3566 13.9993L15.7883 16.4816L13.5559 15.3143L11.3264 16.4902L11.7467 14.005L9.9375 12.2498L12.4312 11.8805L13.5445 9.61975L14.6636 11.8777Z" fill="white"></path><path d="M28.9009 14.3912L31.3974 14.7491L29.5939 16.5129L30.0256 18.9952L27.7932 17.825L25.5637 19.0037L25.984 16.5185L24.1748 14.7605L26.6685 14.3941L27.7818 12.1333L28.9009 14.3912Z" fill="white"></path><path d="M43.1392 11.3096L45.6357 11.6675L43.8322 13.4313L44.2639 15.9136L42.0315 14.7463L39.8019 15.9221L40.2223 13.4369L38.4131 11.6817L40.9096 11.3153L42.0201 9.0517L43.1392 11.3096Z" fill="white"></path><path d="M40.9547 33.5227L43.4512 33.8806L41.6505 35.6443L42.0794 38.1267L39.847 36.9593L37.6175 38.1352L38.0378 35.65L36.2314 33.8948L38.7251 33.5284L39.8356 31.2648L40.9547 33.5227Z" fill="white"></path><path d="M29.1538 29.413L31.6503 29.7708L29.8468 31.5346L30.2785 34.0169L28.0461 32.8496L25.8166 34.0254L26.2369 31.5403L24.4277 29.785L26.9243 29.4158L28.0348 27.155L29.1538 29.413Z" fill="white"></path><path d="M19.2534 22.9261L20.6707 23.1306L19.6482 24.1303L19.8924 25.539L18.6229 24.8773L17.359 25.5447L17.5976 24.1331L16.5723 23.1362L17.9867 22.9289L18.6172 21.6451L19.2534 22.9261Z" fill="white"></path><path d="M36.7886 22.4602L38.2058 22.6647L37.1833 23.6645L37.4276 25.0761L36.1609 24.4115L34.8942 25.0789L35.1327 23.6702L34.1074 22.6733L35.5218 22.4631L36.1524 21.1793L36.7886 22.4602Z" fill="white"></path><path d="M17.353 33.9288L19.8495 34.2867L18.046 36.0505L18.4777 38.5328L16.2454 37.3655L14.0158 38.5413L14.4362 36.0561L12.627 34.3009L15.1206 33.9345L16.234 31.6709L17.353 33.9288Z" fill="white"></path><path d="M33.306 54.0005L33.0107 53.7222L32.7408 54.0232C32.045 54.8014 31.3378 55.2076 30.6391 55.2275C29.8978 55.2388 29.1082 54.8384 28.2874 54.009L28.0119 53.7307L27.7308 54.0062C26.0494 55.6507 24.4163 55.6478 22.5843 53.9948L22.3401 53.7733L22.0788 53.9749C21.6471 54.3072 21.2296 54.5685 20.8291 54.7674C21.062 54.9463 21.2921 55.1195 21.5193 55.29C21.7919 55.1366 22.0532 54.969 22.3003 54.7929C24.2345 56.4005 26.1942 56.4147 28.0006 54.8298C28.8896 55.6421 29.7927 56.0369 30.659 56.017C31.4855 55.9943 32.2921 55.5995 33.0561 54.8384C33.3515 55.0883 33.6469 55.2928 33.9451 55.4632C34.1751 55.2956 34.4052 55.1224 34.6381 54.9434C34.2007 54.739 33.7576 54.4237 33.3032 53.9977" fill="white"></path><path d="M36.8619 50.223L36.5665 49.9447L36.2967 50.2458C35.6009 51.024 34.8937 51.4301 34.195 51.45C33.448 51.4614 32.6641 51.0609 31.8433 50.2316L31.5678 49.9532L31.2866 50.2287C29.6052 51.8732 27.9721 51.8703 26.1402 50.2174L25.896 49.9958L25.6347 50.1975C23.4903 51.8448 21.7322 51.859 20.2639 50.2458L19.9912 49.9447L19.6987 50.2259C18.8267 51.0666 18.0457 51.4699 17.2987 51.45C17.1425 51.4472 16.9863 51.4216 16.8301 51.3818C17.1283 51.663 17.4294 51.9385 17.7304 52.2083C18.4575 52.1089 19.1903 51.734 19.9571 51.0609C21.9879 53.0093 24.2288 52.1856 25.859 51.0154C27.796 52.623 29.7529 52.6372 31.5593 51.0524C32.4483 51.8647 33.3514 52.2566 34.2177 52.2396C35.0442 52.2168 35.8508 51.8221 36.6148 51.0609C37.1374 51.504 37.6657 51.8164 38.1911 52.0095C38.4155 51.8079 38.637 51.6034 38.8586 51.396C38.2082 51.2569 37.5464 50.8678 36.8619 50.223Z" fill="white"></path><path d="M39.3845 46.1559L39.0891 45.8776L38.8193 46.1787C38.1234 46.9569 37.4162 47.363 36.7175 47.3801C35.9791 47.4028 35.1867 46.9909 34.3659 46.1616L34.0904 45.8833L33.8092 46.1588C32.1278 47.8032 30.4947 47.8004 28.6628 46.1474L28.4185 45.9259L28.1572 46.1275C26.0129 47.7748 24.2548 47.789 22.7864 46.1758L22.5138 45.8748L22.2212 46.1559C21.3493 46.9966 20.5711 47.4028 19.8213 47.3801C19.0998 47.3659 18.3784 46.9682 17.6173 46.1673L17.356 45.8946L17.072 46.1417C15.294 47.6925 13.7859 47.7805 12.3516 46.4172C12.7691 46.9796 13.2065 47.5249 13.6609 48.0589C14.8168 48.34 16.0466 47.9822 17.3077 46.9739C18.1342 47.7578 18.9522 48.1497 19.8042 48.1696C20.6762 48.1867 21.5566 47.8032 22.4797 46.9909C24.5104 48.9393 26.7513 48.1157 28.3816 46.9455C30.3157 48.553 32.2755 48.5673 34.0818 46.9824C34.9708 47.7947 35.8626 48.1923 36.7402 48.1696C37.5667 48.1469 38.3734 47.7521 39.1374 46.9909C40.0746 47.7834 41.0233 48.1725 41.9605 48.1639C42.2161 47.8657 42.4661 47.5647 42.7103 47.2579C41.6311 47.6073 40.5433 47.2409 39.3845 46.1559Z" fill="white"></path><path d="M42.0258 42.5091L41.7503 42.1768L41.4435 42.4807C39.7934 44.1194 38.2086 44.1166 36.4562 42.4721L36.1608 42.1938L35.891 42.4949C35.1951 43.2731 34.4879 43.6792 33.7892 43.6963C33.0508 43.7161 32.2584 43.3072 31.4376 42.4778L31.1621 42.1995L30.8809 42.475C29.1995 44.1194 27.5664 44.1166 25.7345 42.4636L25.4902 42.2421L25.2289 42.4437C23.0846 44.091 21.3265 44.1052 19.8581 42.492L19.5855 42.191L19.2929 42.4721C18.421 43.3128 17.6229 43.7019 16.893 43.6963C16.1716 43.6821 15.4502 43.2844 14.689 42.4835L14.4277 42.2108L14.1437 42.4579C12.7633 43.6622 11.5449 43.9831 10.3975 43.4264C10.5878 43.7644 10.7866 44.0996 10.9939 44.429C12.0732 44.5994 13.2149 44.2217 14.3822 43.2873C15.2087 44.0712 16.0267 44.4631 16.8788 44.483C17.7507 44.5029 18.6312 44.1166 19.5542 43.3043C21.585 45.2527 23.8259 44.429 25.4561 43.2589C27.3931 44.8664 29.35 44.8806 31.1564 43.2958C32.0454 44.1052 32.9457 44.5 33.8148 44.483C34.6413 44.4603 35.4479 44.0655 36.2119 43.3043C38.058 44.8636 39.9411 44.8693 41.6992 43.3185C42.395 44.0513 43.142 44.4404 43.9259 44.4801C43.9713 44.4801 44.0139 44.483 44.0594 44.483C44.2837 44.483 44.511 44.4546 44.7382 44.3949C44.9739 44.0172 45.1983 43.6338 45.4113 43.2447C44.9029 43.5656 44.4201 43.7161 43.9656 43.6906C43.3096 43.6565 42.6563 43.256 42.0286 42.5005" fill="white"></path></svg>